<svg xmlns="http://www.w3.org/2000/svg" viewBox="0 0 332.63 231.7"><defs><style>.cls-1{fill:#fff;}</style></defs><title>Asset 1</title><g id="Layer_2" data-name="Layer 2"><g id="Layer_1-2" data-name="Layer 1"><path class="cls-1" d="M141.42,64.11l-58.29-.27a4.24,4.24,0,0,1-4.27-4.18h0A4.24,4.24,0,0,1,83,55.38l58.29.27a4.24,4.24,0,0,1,4.27,4.18h0A4.24,4.24,0,0,1,141.42,64.11Z"/><path class="cls-1" d="M165.4,209.68l-56.61.71a2.59,2.59,0,0,1-2.61-2.56h0a2.59,2.59,0,0,1,2.56-2.61l56.61-.71a2.59,2.59,0,0,1,2.61,2.56h0A2.59,2.59,0,0,1,165.4,209.68Z"/><path class="cls-1" d="M53.86,146.06l-51.25.65A2.59,2.59,0,0,1,0,144.16H0a2.59,2.59,0,0,1,2.56-2.61l51.25-.65a2.59,2.59,0,0,1,2.61,2.56h0A2.59,2.59,0,0,1,53.86,146.06Z"/><path class="cls-1" d="M32.27,137.37l-17.44.26a2.59,2.59,0,0,1-2.61-2.56h0a2.59,2.59,0,0,1,2.56-2.61l17.44-.26a2.59,2.59,0,0,1,2.61,2.56h0A2.59,2.59,0,0,1,32.27,137.37Z"/><path class="cls-1" d="M142,223.52l-17.44.26a2.59,2.59,0,0,1-2.61-2.56h0a2.59,2.59,0,0,1,2.56-2.61l17.44-.26a2.59,2.59,0,0,1,2.61,2.56h0A2.59,2.59,0,0,1,142,223.52Z"/><path class="cls-1" d="M137.33,44.72l-17.44-.23a2.59,2.59,0,0,1-2.54-2.63h0A2.59,2.59,0,0,1,120,39.33l17.44.23A2.59,2.59,0,0,1,140,42.19h0A2.59,2.59,0,0,1,137.33,44.72Z"/><path class="cls-1" d="M97.68,78.23l-51.25.65a2.59,2.59,0,0,1-2.61-2.56h0a2.59,2.59,0,0,1,2.56-2.61l51.25-.65a2.59,2.59,0,0,1,2.61,2.56h0A2.59,2.59,0,0,1,97.68,78.23Z"/><path class="cls-1" d="M132.72,199.27l-51.25.65a2.59,2.59,0,0,1-2.61-2.56h0a2.59,2.59,0,0,1,2.56-2.61l51.25-.65a2.59,2.59,0,0,1,2.61,2.56h0A2.59,2.59,0,0,1,132.72,199.27Z"/><path class="cls-1" d="M152.41,98l-51.25.65a2.59,2.59,0,0,1-2.61-2.56h0a2.59,2.59,0,0,1,2.56-2.61l51.25-.65A2.59,2.59,0,0,1,155,95.37h0A2.59,2.59,0,0,1,152.41,98Z"/><path class="cls-1" d="M289.68,58.29a21,21,0,0,0,21-21s19,2.89,21.89-1.65c.91-1.43-21.89-6.6-21.89-6.6V7.56L289.68,0l-21,10,.46,22.82h0a21,21,0,0,0,20.57,25.43Z"/><path class="cls-1" d="M212.18,18.92,194,.76,155.59,39.2l5.59,5.59C175.78,20.22,194.76,15.64,212.18,18.92Z"/><path class="cls-1" d="M259.43,69.43,247.07,56.82c-45.17-29.58-58.13,5.81-61.12,14.47l36.36,36.36Z"/><path class="cls-1" d="M158.1,76.44c4.54,2.75,5.09,7.42,9.76,7.61s6.6-5.41,6.6-5.41c2.47.28,4.4-2.2,4.4-2.2,3-5.77-1.92-7.43-1.92-7.43L158.1,61.59S153.57,73.69,158.1,76.44Z"/><path class="cls-1" d="M331.36,70.2c-4-3.52-3.68-8.21-8.24-9.23s-7.46,4.15-7.46,4.15c-2.39-.71-4.72,1.38-4.72,1.38-4,5.14.57,7.65.57,7.65L328.7,84.82S335.33,73.72,331.36,70.2Z"/><path class="cls-1" d="M80.13,134.19l-15.06-1.84-2.3,55.34s12.08-4,16.19-13-3.42-23.55-3.42-23.55l6.14-.26Z"/><path class="cls-1" d="M285.14,102c-5.95,0-10.82-16.61-12.83-24.63l7.88-5.06-11.55-26.4-6.19-2.47-2.37,2.37c-12.48-11-71.13-57.31-102,12.48L182.85,69s13.25-51.17,67.46-13L264.79,69.7l-42.72,42.4L196.85,86.86a101.18,101.18,0,0,1-14,2.77l-1.78.92a36.47,36.47,0,0,0-16.74,17.87l-1.69,3.89c-14.23,36.16-80.33,14.91-80.33,14.91l2.75,30.32c51.55,9.69,91.73-10.6,112.9-25.31,14.74,9.44,28.37,20.22,27.79,27.51-1.24,15.67-40.69,36.71-40.69,36.71l6.79,5,14.74,10.82,4.22,3.1a105.47,105.47,0,0,0-10.22,3.78l4.26-4.89L190.4,203.82l-17,27.88h59a14.71,14.71,0,0,0-6.94-15c-4.45-2.77-7.75-3.42-14.33-1.39,4.37-3.24,70.33-53,34.83-78.78-10.57-7.67-20.28-14.81-28.76-21.08,9-2.15,28-8.11,41.64-22,3.2,12,10.1,28.6,23.83,28.86,21.45.41,45.37-34.65,45.37-34.65L306.59,73.14S293,102,285.14,102Z"/></g></g></svg>